<svg width="1200" height="300" viewBox="0 0 1200 300" fill="none" xmlns="http://www.w3.org/2000/svg" role="img" aria-labelledby="title desc">
  <title id="title">SayTrue.ai logo white</title>
  <desc id="desc">White SayTrue.ai wordmark with a verified conversation mark for dark backgrounds.</desc>
  <defs>
    <linearGradient id="saytrue-mark" x1="55" y1="55" x2="207" y2="217" gradientUnits="userSpaceOnUse">
      <stop stop-color="#60A5FA"/>
      <stop offset="0.52" stop-color="#2563EB"/>
      <stop offset="1" stop-color="#22D3EE"/>
    </linearGradient>
    <linearGradient id="saytrue-word" x1="416" y1="84" x2="797" y2="210" gradientUnits="userSpaceOnUse">
      <stop stop-color="#93C5FD"/>
      <stop offset="1" stop-color="#22D3EE"/>
    </linearGradient>
    <filter id="soft-shadow" x="34" y="44" width="220" height="220" filterUnits="userSpaceOnUse" color-interpolation-filters="sRGB">
      <feDropShadow dx="0" dy="14" stdDeviation="18" flood-color="#22D3EE" flood-opacity="0.2"/>
    </filter>
  </defs>
  <g filter="url(#soft-shadow)">
    <rect x="62" y="62" width="176" height="176" rx="48" fill="url(#saytrue-mark)"/>
    <path d="M107 113C107 103.059 115.059 95 125 95H178C192.359 95 204 106.641 204 121V158C204 172.359 192.359 184 178 184H150L119 209V184H125C115.059 184 107 175.941 107 166V113Z" fill="white" fill-opacity="0.16"/>
    <path d="M111 149.5L139.5 178L194 118" stroke="white" stroke-width="19" stroke-linecap="round" stroke-linejoin="round"/>
    <circle cx="206" cy="93" r="10" fill="white" fill-opacity="0.92"/>
  </g>
  <text x="286" y="193" font-family="Inter, Satoshi, Manrope, ui-sans-serif, system-ui, -apple-system, BlinkMacSystemFont, 'Segoe UI', sans-serif" font-size="132" font-weight="760" letter-spacing="-6.5" fill="#FFFFFF">Say</text>
  <text x="507" y="193" font-family="Inter, Satoshi, Manrope, ui-sans-serif, system-ui, -apple-system, BlinkMacSystemFont, 'Segoe UI', sans-serif" font-size="132" font-weight="760" letter-spacing="-6.5" fill="url(#saytrue-word)">True</text>
  <text x="792" y="193" font-family="Inter, Satoshi, Manrope, ui-sans-serif, system-ui, -apple-system, BlinkMacSystemFont, 'Segoe UI', sans-serif" font-size="132" font-weight="680" letter-spacing="-6.5" fill="#CBD5E1">.ai</text>
</svg>
