<svg width="1600" height="900" viewBox="0 0 1600 900" fill="none" xmlns="http://www.w3.org/2000/svg">
  <defs>
    <linearGradient id="bg" x1="0" y1="0" x2="1600" y2="900" gradientUnits="userSpaceOnUse">
      <stop stop-color="#061018"/>
      <stop offset="0.48" stop-color="#071923"/>
      <stop offset="1" stop-color="#02060A"/>
    </linearGradient>
    <linearGradient id="mark" x1="452" y1="265" x2="658" y2="508" gradientUnits="userSpaceOnUse">
      <stop stop-color="#70D7FF"/>
      <stop offset="0.48" stop-color="#3B82F6"/>
      <stop offset="1" stop-color="#7C3AED"/>
    </linearGradient>
    <linearGradient id="word" x1="690" y1="334" x2="1122" y2="476" gradientUnits="userSpaceOnUse">
      <stop stop-color="#FFFFFF"/>
      <stop offset="0.58" stop-color="#EAF6FF"/>
      <stop offset="1" stop-color="#83D8FF"/>
    </linearGradient>
    <radialGradient id="glow" cx="0" cy="0" r="1" gradientUnits="userSpaceOnUse" gradientTransform="translate(589 390) rotate(28) scale(442 289)">
      <stop stop-color="#36BFFA" stop-opacity="0.55"/>
      <stop offset="0.42" stop-color="#2563EB" stop-opacity="0.2"/>
      <stop offset="1" stop-color="#02060A" stop-opacity="0"/>
    </radialGradient>
    <filter id="shadow" x="340" y="185" width="398" height="398" filterUnits="userSpaceOnUse" color-interpolation-filters="sRGB">
      <feDropShadow dx="0" dy="26" stdDeviation="30" flood-color="#38BDF8" flood-opacity="0.24"/>
      <feDropShadow dx="0" dy="10" stdDeviation="18" flood-color="#000000" flood-opacity="0.45"/>
    </filter>
  </defs>

  <rect width="1600" height="900" rx="0" fill="url(#bg)"/>
  <rect x="0.5" y="0.5" width="1599" height="899" stroke="#FFFFFF" stroke-opacity="0.04"/>
  <path d="M0 260H1600M0 450H1600M0 640H1600M360 0V900M800 0V900M1240 0V900" stroke="#DFF6FF" stroke-opacity="0.035" stroke-width="1"/>
  <circle cx="1160" cy="180" r="330" fill="#14B8A6" fill-opacity="0.05"/>
  <circle cx="420" cy="680" r="360" fill="#3B82F6" fill-opacity="0.08"/>
  <rect x="264" y="185" width="1072" height="530" rx="54" fill="#FFFFFF" fill-opacity="0.035" stroke="#FFFFFF" stroke-opacity="0.075"/>
  <rect x="300" y="221" width="1000" height="458" rx="42" fill="#02070C" fill-opacity="0.54" stroke="#FFFFFF" stroke-opacity="0.06"/>
  <ellipse cx="600" cy="382" rx="398" ry="292" fill="url(#glow)"/>

  <g filter="url(#shadow)">
    <rect x="430" y="281" width="206" height="206" rx="58" fill="url(#mark)"/>
    <rect x="446" y="297" width="174" height="174" rx="48" fill="url(#mark)"/>
    <path d="M485 388.5L521.8 425.3L588 348.4" stroke="white" stroke-width="28" stroke-linecap="round" stroke-linejoin="round"/>
    <path d="M587 314L604 303L621 314L610 331L621 348L604 359L587 348L598 331L587 314Z" fill="white" fill-opacity="0.92"/>
  </g>

  <g>
    <text x="690" y="393" font-family="Inter, ui-sans-serif, system-ui, -apple-system, BlinkMacSystemFont, 'Segoe UI', sans-serif" font-size="104" font-weight="820" letter-spacing="-5" fill="url(#word)">SayTrue</text>
    <text x="1104" y="393" font-family="Inter, ui-sans-serif, system-ui, -apple-system, BlinkMacSystemFont, 'Segoe UI', sans-serif" font-size="104" font-weight="760" letter-spacing="-5" fill="#5DD7FF">.ai</text>
    <text x="695" y="462" font-family="Inter, ui-sans-serif, system-ui, -apple-system, BlinkMacSystemFont, 'Segoe UI', sans-serif" font-size="32" font-weight="560" letter-spacing="0.5" fill="#B9D6E6">Source-grounded support automation</text>
  </g>

  <g opacity="0.9">
    <rect x="700" y="522" width="154" height="46" rx="23" fill="#FFFFFF" fill-opacity="0.06" stroke="#FFFFFF" stroke-opacity="0.10"/>
    <circle cx="725" cy="545" r="6" fill="#22C55E"/>
    <text x="744" y="555" font-family="Inter, ui-sans-serif, system-ui" font-size="20" font-weight="650" fill="#D9F8E6">Cited answers</text>
    <rect x="872" y="522" width="166" height="46" rx="23" fill="#FFFFFF" fill-opacity="0.06" stroke="#FFFFFF" stroke-opacity="0.10"/>
    <circle cx="897" cy="545" r="6" fill="#38BDF8"/>
    <text x="916" y="555" font-family="Inter, ui-sans-serif, system-ui" font-size="20" font-weight="650" fill="#DDF6FF">Human handoff</text>
    <rect x="1056" y="522" width="132" height="46" rx="23" fill="#FFFFFF" fill-opacity="0.06" stroke="#FFFFFF" stroke-opacity="0.10"/>
    <circle cx="1081" cy="545" r="6" fill="#A78BFA"/>
    <text x="1100" y="555" font-family="Inter, ui-sans-serif, system-ui" font-size="20" font-weight="650" fill="#EEE7FF">EU hosted</text>
  </g>
</svg>
