<svg width="1200" height="320" viewBox="0 0 1200 320" fill="none" xmlns="http://www.w3.org/2000/svg" role="img" aria-label="SayTrue logo concept Signal S">
<defs>
  <linearGradient id="blue" x1="0" y1="0" x2="1" y2="1">
    <stop stop-color="#0EA5E9"/>
    <stop offset="1" stop-color="#2563EB"/>
  </linearGradient>
  <linearGradient id="cyan" x1="0" y1="0" x2="1" y2="1">
    <stop stop-color="#22D3EE"/>
    <stop offset="1" stop-color="#2DD4BF"/>
  </linearGradient>
  <filter id="shadow" x="-20%" y="-20%" width="140%" height="140%">
    <feDropShadow dx="0" dy="14" stdDeviation="18" flood-color="#0F172A" flood-opacity="0.12"/>
  </filter>
</defs>
<rect width="1200" height="320" fill="white"/>
<g transform="translate(72 54)" filter="url(#shadow)">
  <rect x="0" y="0" width="212" height="212" rx="58" fill="#07111F"/>
  <path d="M144 58C119 36 69 43 60 79C50 117 103 121 131 130C163 141 164 179 133 196C101 213 59 198 44 176" stroke="white" stroke-width="24" stroke-linecap="round"/>
  <circle cx="157" cy="50" r="12" fill="#22D3EE"/>
  <circle cx="50" cy="181" r="8" fill="#38BDF8"/>
  <path d="M154 50L180 50" stroke="#22D3EE" stroke-width="8" stroke-linecap="round"/>
</g>
<text x="334" y="188" font-family="Inter, Satoshi, Manrope, ui-sans-serif, system-ui, -apple-system, BlinkMacSystemFont, 'Segoe UI', sans-serif" font-size="118" font-weight="780" letter-spacing="-6" fill="#07111F">SayTrue</text>
<text x="825" y="184" font-family="Inter, Satoshi, Manrope, ui-sans-serif, system-ui, -apple-system, BlinkMacSystemFont, 'Segoe UI', sans-serif" font-size="62" font-weight="650" letter-spacing="-2" fill="#64748B">.ai</text>
<text x="339" y="238" font-family="Inter, Satoshi, Manrope, ui-sans-serif, system-ui, -apple-system, BlinkMacSystemFont, 'Segoe UI', sans-serif" font-size="25" font-weight="620" letter-spacing="0.8" fill="#64748B">verified answers from approved sources</text>
</svg>